<svg xmlns="http://www.w3.org/2000/svg" viewBox="0 0 512 512" role="img" aria-labelledby="title desc">
  <title id="title">Grey Hour RP Mark</title>
  <desc id="desc">Stylized apocalyptic hourglass emblem</desc>
  <defs>
    <linearGradient id="bg" x1="0" x2="0" y1="0" y2="1">
      <stop offset="0" stop-color="#120c0c"/>
      <stop offset="1" stop-color="#050506"/>
    </linearGradient>
    <linearGradient id="rust" x1="0" x2="1" y1="0" y2="1">
      <stop offset="0" stop-color="#f0e7d8"/>
      <stop offset="0.5" stop-color="#d8b48b"/>
      <stop offset="1" stop-color="#9e6b43"/>
    </linearGradient>
    <linearGradient id="blood" x1="0" x2="1" y1="0" y2="1">
      <stop offset="0" stop-color="#d1141d"/>
      <stop offset="1" stop-color="#7d0e13"/>
    </linearGradient>
  </defs>

  <circle cx="256" cy="256" r="246" fill="url(#bg)" stroke="#2f1d1d" stroke-width="8"/>
  <circle cx="256" cy="256" r="210" fill="none" stroke="#4f2f2f" stroke-width="4" opacity="0.5"/>

  <g transform="translate(256 256)">
    <path d="M-130 -170H130L74 -96V96L130 170H-130L-74 96V-96Z" fill="none" stroke="url(#rust)" stroke-width="22" stroke-linejoin="round"/>
    <path d="M-60 -56L0 0L60 -56" fill="none" stroke="url(#rust)" stroke-width="14" stroke-linecap="round" stroke-linejoin="round"/>
    <path d="M-56 56L0 0L56 56" fill="none" stroke="url(#rust)" stroke-width="14" stroke-linecap="round" stroke-linejoin="round"/>

    <path d="M-54 -18C-35 -6 -18 -1 0 0C18 -1 35 -6 54 -18C42 15 20 44 0 66C-20 44 -42 15 -54 -18Z" fill="url(#blood)" opacity="0.95"/>
    <path d="M-70 -110C-40 -128 40 -128 70 -110C42 -96 14 -90 0 -90C-14 -90 -42 -96 -70 -110Z" fill="url(#blood)" opacity="0.72"/>
    <path d="M-82 124C-46 138 46 138 82 124C48 150 -48 150 -82 124Z" fill="url(#blood)" opacity="0.6"/>
  </g>
</svg>
